<?xml version="1.0" encoding="UTF-8"?>
<svg id="Layer_2" data-name="Layer 2" xmlns="http://www.w3.org/2000/svg" viewBox="0 0 767.04 324.41">
  <defs>
    <style>
      .cls-1 {
        fill: #fff;
      }
    </style>
  </defs>
  <g id="Layer_1-2" data-name="Layer 1">
    <g>
      <g>
        <path class="cls-1" d="m124.87,200.6c-20.55,17.38-36.54,39.73-47.69,66.63-2.42-.68-4.97-1.04-7.59-1.04-15.8,0-28.65,13.06-28.65,29.11s12.85,29.11,28.65,29.11,28.65-13.06,28.65-29.11c0-10.43-5.42-19.59-13.56-24.73,17.59-42.76,47.41-72.86,88.96-89.83-.68-2.55-1.28-5.3-1.75-8.2-8.21,3.31-16.03,7.13-23.43,11.44-8.41,4.9-16.28,10.45-23.58,16.62Z"/>
        <path class="cls-1" d="m28.65,133.09c-15.8,0-28.65,13.06-28.65,29.11s12.85,29.11,28.65,29.11c14.23,0,26.08-10.6,28.29-24.44h114.28c-.22-2.67-.29-5.45-.17-8.32H57.08c-1.77-14.34-13.84-25.47-28.43-25.47Z"/>
        <path class="cls-1" d="m40.93,29.11c0,16.05,12.85,29.11,28.65,29.11,4.05,0,7.9-.86,11.41-2.41,10.68,27.13,26.29,49.77,46.56,67.52,12.92,11.31,27.7,20.64,44.19,27.88.41-2.69,1-5.44,1.8-8.23-40.4-18.02-69.05-48.73-85.5-91.64,6.23-5.34,10.2-13.34,10.2-22.25,0-16.05-12.85-29.11-28.65-29.11s-28.65,13.06-28.65,29.11Z"/>
      </g>
      <path class="cls-1" d="m233.07,270.44c-18,0-34.16-3.73-48.49-11.19-14.32-7.46-25.62-18.35-33.88-32.68-8.26-14.32-12.4-31.93-12.4-52.82,0-17.11,2.48-32.98,7.44-47.6,4.96-14.62,12.26-27.35,21.9-38.2,9.64-10.84,21.53-19.4,35.67-25.67,14.14-6.27,30.48-9.4,49.04-9.4,9.92,0,19.15,1.04,27.69,3.13,8.54,2.09,16.16,4.68,22.87,7.76,6.7,3.09,12.07,6.71,16.12,10.89l-19.01,42.68c-7.35-5.77-15.29-10.1-23.83-12.98-8.54-2.88-17.4-4.33-26.58-4.33-12.86,0-23.65,3.33-32.37,10-8.73,6.67-15.34,15.42-19.84,26.26-4.5,10.85-6.75,22.53-6.75,35.07,0,18.11,4.45,31.44,13.36,39.99,8.91,8.56,21.16,12.83,36.78,12.83,5.32,0,10.88-.55,16.67-1.64,5.79-1.09,11.61-2.63,17.49-4.63l-11.3,19.99,7.44-51.03h-38.84l5.51-38.5h80.17l-15.7,107.44c-6.8,3.39-14.1,6.12-21.9,8.21-7.81,2.09-15.75,3.68-23.83,4.78-8.08,1.09-15.89,1.64-23.42,1.64Z"/>
      <path class="cls-1" d="m384.97,274.02c-19.19,0-32.94-5.32-41.26-15.97-8.32-10.64-10.92-26.11-7.78-46.4l23.5-151.61h52.27l-23.5,151.31c-.78,4.38-.74,8.06.15,11.04.88,2.99,2.64,5.22,5.28,6.72,2.65,1.49,6.02,2.24,10.13,2.24,1.96,0,3.96-.1,6.02-.3,2.06-.2,4.06-.3,6.02-.3l-6.76,39.99c-3.33.99-7.05,1.79-11.16,2.39-4.11.59-8.42.89-12.92.89Z"/>
      <polygon class="cls-1" points="428.72 270.44 451.34 123.61 503.61 123.61 481 270.44 428.72 270.44"/>
      <polygon class="cls-1" points="454.27 98.25 461.62 50.5 516.53 50.5 509.19 98.25 454.27 98.25"/>
      <polygon class="cls-1" points="511.54 270.44 534.15 123.61 586.43 123.61 563.82 270.44 511.54 270.44"/>
      <polygon class="cls-1" points="537.09 98.25 544.43 50.5 599.35 50.5 592.01 98.25 537.09 98.25"/>
      <path class="cls-1" d="m636.36,270.44l-40.24-146.83h52.57l21.44,96.1h-9.99l53.16-96.1h53.74l-87.22,146.83h-43.46Z"/>
      <polygon class="cls-1" points="492.69 50.5 565.55 50.5 552.47 98.25 483.92 98.25 492.69 50.5"/>
    </g>
  </g>
</svg>